<svg xmlns="http://www.w3.org/2000/svg" xml:space="preserve" width="2000" height="273" data-id="lg_LTpJYo3XIweN2sqEEa" data-version="1" viewBox="0 0 2000 273"><g data-padding="20"><g transform="translate(10 3.845)scale(.97183)"><rect width="577.612" height="110.74" x="255.714" y="-318.87" fill="none" rx="0" ry="0" transform="translate(540.29 400.19)"/><path d="M809.82 150.72h-8.92v-35.58h8.92Zm0-35.58h-8.92q0-5.39 2.45-9.55 2.45-4.17 6.86-6.47t10.09-2.3v7.74q-4.9 0-7.69 2.74-2.79 2.75-2.79 7.84m-8.92 35.48h8.92q0 5.1 2.79 7.89t7.69 2.79v7.74q-5.68 0-10.09-2.35t-6.86-6.47q-2.45-4.11-2.45-9.6m39.2-34.59-8.13 1.66q-.59-6.17-3.68-9.65t-8.08-3.48v-7.74q8.33 0 13.57 5.09 5.24 5.1 6.32 14.12m-8.13 32.14 8.13 1.57q-1.08 9.11-6.32 14.21-5.24 5.09-13.57 5.09v-7.74q4.99 0 8.08-3.48t3.68-9.65m50.96 1.75h-8.92v-14.4h8.92Zm-27.54 0h-8.92v-14.4h8.92Zm9.6-25.67h-.59v-7.74h.59Zm0 44.69h-.59v-7.75h.59Zm-9.6-33.32h-8.92q0-5.49 2.4-9.8 2.4-4.32 6.47-6.82 4.07-2.49 9.26-2.49v7.74q-4.31 0-6.76 2.94t-2.45 8.43m27.54 0h-8.92q0-5.49-2.4-8.43t-6.81-2.94v-7.74q5.19 0 9.26 2.49 4.06 2.5 6.47 6.82 2.4 4.31 2.4 9.8m-36.46 14.21h8.92q0 5.39 2.45 8.37 2.45 2.99 6.76 2.99v7.75q-5.19 0-9.26-2.5t-6.47-6.81q-2.4-4.32-2.4-9.8m27.54 0h8.92q0 5.48-2.4 9.8-2.41 4.31-6.47 6.81-4.07 2.5-9.26 2.5v-7.75q4.41 0 6.81-2.99 2.4-2.98 2.4-8.37m53.21-51.44v19.69h-8.92V98.39Zm0 69.09h-8.92v-49.49h8.92Zm-27.54-15.78h-8.91v-17.94h8.91Zm0-17.94h-8.91q0-4.9 2.05-8.82 2.06-3.92 5.64-6.17t8.18-2.25l2.26 7.93q-4.02 0-6.62 2.6t-2.6 6.71m22.54.2h-3.92q0-4.21-2.64-6.86-2.65-2.65-6.76-2.65l-2.26-7.93q4.41 0 7.99 2.25t5.59 6.22q2 3.97 2 8.97m-31.45 17.74h8.91q0 4.11 2.6 6.71t6.62 2.6l-2.26 7.94q-4.6 0-8.18-2.26-3.58-2.25-5.64-6.17-2.05-3.92-2.05-8.82m27.53-.3h3.92q0 5-2 8.97-2.01 3.97-5.59 6.27-3.58 2.31-7.99 2.31l2.26-7.94q4.11 0 6.76-2.65 2.64-2.64 2.64-6.96m54.49-5.97h-33.42v-6.37h33.42Zm-17.74 23.61h-.49v-7.74h.49Zm-9.6-19.11h-8.92v-14.4h8.92Zm27.34-10.87h-8.92v-5.1h8.92Zm0-5.1h-8.92q0-4.31-2.59-7.06-2.6-2.74-6.72-2.74v-7.64q5.3 0 9.36 2.25 4.07 2.25 6.47 6.22t2.4 8.97m-8.52 18.82 8.33 1.66q-.59 4.22-3.04 7.55t-6.18 5.19q-3.72 1.86-8.33 1.86v-7.74q3.53 0 6.13-2.11 2.6-2.1 3.09-6.41m-18.82-17.15h-8.92q0-5.59 2.4-9.85 2.4-4.27 6.47-6.77 4.07-2.49 9.26-2.49v7.64q-4.31 0-6.76 2.99t-2.45 8.48m-8.92 14.3h8.92q0 5.39 2.45 8.38t6.76 2.99v7.74q-5.19 0-9.26-2.5-4.07-2.49-6.47-6.81-2.4-4.31-2.4-9.8m54.49 17.55h-8.92v-49.49h8.92Zm27.54 0h-8.92v-33.72h8.92Zm0-33.72h-8.92q0-4.11-2.55-6.71t-6.56-2.6l2.25-7.93q4.51 0 8.09 2.25 3.57 2.25 5.63 6.17t2.06 8.82m-27.54.2h-3.92q0-5 2.06-8.97t5.58-6.22q3.53-2.25 8.04-2.25l-2.25 7.93q-4.22 0-6.86 2.65-2.65 2.65-2.65 6.86m71.64 11.47h-33.42v-6.37h33.42Zm-17.74 23.61h-.49v-7.74h.49Zm-9.6-19.11h-8.92v-14.4h8.92Zm27.34-10.87h-8.92v-5.1h8.92Zm0-5.1h-8.92q0-4.31-2.6-7.06-2.59-2.74-6.71-2.74v-7.64q5.29 0 9.36 2.25t6.47 6.22 2.4 8.97m-8.53 18.82 8.33 1.66q-.59 4.22-3.04 7.55t-6.17 5.19-8.33 1.86v-7.74q3.53 0 6.13-2.11 2.59-2.1 3.08-6.41m-18.81-17.15h-8.92q0-5.59 2.4-9.85 2.4-4.27 6.47-6.77 4.06-2.49 9.26-2.49v7.64q-4.31 0-6.76 2.99t-2.45 8.48m-8.92 14.3h8.92q0 5.39 2.45 8.38t6.76 2.99v7.74q-5.2 0-9.26-2.5-4.07-2.49-6.47-6.81-2.4-4.31-2.4-9.8m92.02 17.54h-8.23l12.54-49.49h8.92Zm-27.93 0h-8.23l-13.23-49.49h8.92Zm.78 0h-7.64l12.74-49.49h7.84Zm25.78 0h-7.55l-13.03-49.49h7.84Zm46.84-12.74q0-2.45-1.76-4.07-1.77-1.62-4.56-2.94t-5.88-2.7q-3.09-1.37-5.88-3.18t-4.56-4.61q-1.76-2.79-1.76-6.81h8.62q0 2.45 1.77 4.07 1.76 1.62 4.56 2.89 2.79 1.27 5.92 2.69 3.14 1.43 5.88 3.29 2.75 1.86 4.56 4.55 1.81 2.7 1.81 6.82h-7.84Zm-8.33 14.21v-7.75q3.63 0 5.98-1.81t2.35-4.65h8.72q0 4.11-2.2 7.35-2.21 3.23-6.03 5.04-3.82 1.82-8.82 1.82m-7.45-38.52h-8.62q0-4.02 2.01-7.2 2.01-3.19 5.63-5 3.63-1.81 8.04-1.81v7.74q-3.04 0-5.05 1.76-2.01 1.77-2.01 4.51m-10.09 23.91 8.23-1.66q.49 4.31 3.14 6.42 2.64 2.1 6.17 2.1v7.75q-4.51 0-8.33-1.87-3.82-1.86-6.22-5.19t-2.99-7.55m34.69-23.32-8.33 1.67q-.49-4.41-3.08-6.47-2.6-2.06-6.13-2.06v-7.74q4.61 0 8.33 1.86t6.17 5.14q2.45 3.29 3.04 7.6"/><path fill="#c80707" d="M936.465 53.465V.155h-272.69v272.69h272.69v-53.31h-4.44v48.87h-263.81V4.595h263.81v48.87Z"/></g><path fill="transparent" stroke="transparent" d="M645 0h710v273H645z"/></g></svg>